<svg xmlns="http://www.w3.org/2000/svg" viewBox="0 0 48 48"><defs><style>.cls-1{fill:#bfbfbf;}.cls-2{fill:#fc6459;}.cls-3{fill:#424242;}</style></defs><title>Project</title><g id="Project"><path class="cls-1" d="M33.29,27H1V21a2,2,0,0,1,2-2H14l3,3H33.68A7,7,0,0,0,33.29,27Z"/><path class="cls-1" d="M33,9h5L31,1V7A2,2,0,0,0,33,9Z"/><path class="cls-1" d="M43,25a3.34,3.34,0,0,0-2,.67,1.53,1.53,0,0,1-1.9,0A3.34,3.34,0,0,0,37,25a1,1,0,0,0,0,2c.17,0,0-.72,1,7.12a1,1,0,1,0,2-.24l-.74-6a3.45,3.45,0,0,0,1.5,0l-.74,6a1,1,0,0,0,2,.24c1-7.84.84-7.12,1-7.12a1,1,0,0,0,0-2Z"/><path class="cls-1" d="M21,8H9A1,1,0,0,1,9,6H21a1,1,0,0,1,0,2Z"/><path class="cls-1" d="M27,12H9a1,1,0,0,1,0-2H27a1,1,0,0,1,0,2Z"/><path class="cls-1" d="M27,16H9a1,1,0,0,1,0-2H27a1,1,0,0,1,0,2Z"/><path class="cls-2" d="M21,34H5a1,1,0,0,0-1,1v8a1,1,0,0,0,1,1H21a1,1,0,0,0,1-1V35A1,1,0,0,0,21,34Zm-3,8H8a1,1,0,0,1,0-2H18a1,1,0,0,1,0,2Zm-4-4H8a1,1,0,0,1,0-2h6a1,1,0,0,1,0,2Z"/><path class="cls-3" d="M48,25.1a8.07,8.07,0,0,0-9-8c0-8.64.1-8.32-.25-8.72-7.52-8.6-7-8.09-7.31-8.23S32.61,0,4,0A1,1,0,0,0,3,1V18a3,3,0,0,0-3,3V45a3,3,0,0,0,3,3H39a3,3,0,0,0,3-3V42.84a2,2,0,0,0,1.16-1.35L43.78,39H45a1,1,0,0,0,0-2V35a1,1,0,0,0,.21-2C46.1,29.4,48,28.58,48,25.1ZM32,3.66,35.8,8H33a1,1,0,0,1-1-1ZM5,2H30V7a3,3,0,0,0,3,3h4v7.57A8.06,8.06,0,0,0,33.08,21H17.41l-2.7-2.71A1,1,0,0,0,14,18H5ZM3,20H13.59l2.7,2.71A1,1,0,0,0,17,23H32.26a7.75,7.75,0,0,0-.19,3H2V21A1,1,0,0,1,3,20ZM39,46H3a1,1,0,0,1-1-1V28H32.59c.59,1.44,1.57,2.44,2.2,5A1,1,0,0,0,35,35v2a1,1,0,0,0,0,2h1.22l.62,2.49A2,2,0,0,0,38.78,43H40v2A1,1,0,0,1,39,46Zm2.22-5H38.78l-.5-2h3.44ZM37,37V35h6v2Zm9-11.92c0,2.91-2,3.7-2.84,7.92H36.84a15.82,15.82,0,0,0-2-4.92A6,6,0,0,1,40.07,19,6.09,6.09,0,0,1,46,25.08Z"/></g></svg>